<svg width="282" height="111" viewBox="0 0 282 111" fill="none" xmlns="http://www.w3.org/2000/svg">
<path d="M79.918 57.0009C79.918 55.2139 80.2786 53.4985 80.9278 51.9262C81.5769 50.3537 82.5146 48.9956 83.7408 47.7806C84.967 46.637 86.4097 45.7078 88.0686 45.0645C89.7276 44.4213 91.603 44.064 93.6226 44.064C95.6422 44.064 97.4455 44.4213 99.1045 45.0645C100.763 45.7078 102.206 46.637 103.432 47.7806C104.658 48.9242 105.596 50.3537 106.245 51.9262C106.895 53.4985 107.255 55.2139 107.255 57.0009C107.255 58.7877 106.895 60.5031 106.245 62.0756C105.596 63.6479 104.586 65.006 103.432 66.221C102.206 67.3647 100.763 68.2938 99.1045 68.9371C97.4455 69.5803 95.5701 69.9378 93.6226 69.9378C91.603 69.9378 89.7998 69.5803 88.0686 68.9371C86.4097 68.2938 84.967 67.3647 83.7408 66.221C82.5146 65.0774 81.5769 63.6479 80.9278 62.0756C80.2786 60.5031 79.918 58.7877 79.918 57.0009ZM86.626 57.0009C86.626 58.0014 86.8423 58.8591 87.2031 59.7168C87.5637 60.5745 88.0686 61.2893 88.7178 61.8611C89.367 62.4329 90.0882 62.9333 90.9539 63.2906C91.8194 63.6479 92.6849 63.7909 93.6226 63.7909C94.5603 63.7909 95.4258 63.6479 96.2913 63.2906C97.157 62.9333 97.8782 62.5043 98.5274 61.8611C99.1766 61.2893 99.6815 60.5745 100.042 59.7168C100.403 58.8591 100.619 58.0014 100.619 57.0009C100.619 56.0002 100.403 55.1425 100.042 54.2848C99.6815 53.4271 99.1766 52.7123 98.5274 52.1405C97.8782 51.5687 97.157 51.0685 96.2913 50.711C95.4258 50.3537 94.5603 50.2108 93.6226 50.2108C92.6849 50.2108 91.8194 50.3537 90.9539 50.711C90.0882 51.0685 89.367 51.4973 88.7178 52.1405C88.0686 52.7123 87.5637 53.4985 87.2031 54.2848C86.8423 55.1425 86.626 56.0002 86.626 57.0009Z" fill="#C5A25D"/>
<path d="M135.747 52.7123C135.747 52.7123 130.986 50.2108 126.731 50.2108C122.98 50.2108 118.94 52.0691 118.94 56.9293C118.94 62.29 124.494 63.7195 126.731 63.7195C135.386 63.7195 137.478 60.932 137.478 60.932V67.1503C137.478 67.1503 134.809 69.9378 126.731 69.9378C124.999 69.9378 112.232 69.5089 112.232 56.9293C112.232 52.0691 115.695 44.064 126.731 44.064C132.284 44.064 135.747 46.637 135.747 46.637V52.7123Z" fill="#C5A25D"/>
<path d="M73.2102 52.7124C73.2102 52.7124 68.4495 50.2108 64.1939 50.2108C60.4431 50.2108 56.4038 52.0692 56.4038 56.9294C56.4038 62.29 61.9578 63.7195 64.1939 63.7195C72.8494 63.7195 74.9412 60.932 74.9412 60.932V67.1504C74.9412 67.1504 72.2725 69.9378 64.1939 69.9378C62.4627 69.9378 49.6958 69.509 49.6958 56.9294C49.6958 52.0692 53.158 44.064 64.1939 44.064C69.7479 44.064 73.2102 46.637 73.2102 46.637V52.7124Z" fill="#C5A25D"/>
<path d="M142.454 57.0009C142.454 55.2139 142.816 53.4985 143.464 51.9262C144.113 50.3537 145.052 48.9956 146.277 47.7806C147.503 46.637 148.946 45.7078 150.605 45.0645C152.264 44.4213 154.14 44.064 156.16 44.064C158.179 44.064 159.982 44.4213 161.641 45.0645C163.301 45.7078 164.742 46.637 165.968 47.7806C167.195 48.9242 168.133 50.3537 168.783 51.9262C169.431 53.4985 169.792 55.2139 169.792 57.0009C169.792 58.7877 169.431 60.5031 168.783 62.0756C168.133 63.6479 167.123 65.006 165.968 66.221C164.742 67.3647 163.301 68.2938 161.641 68.9371C159.982 69.5803 158.107 69.9378 156.16 69.9378C154.14 69.9378 152.337 69.5803 150.605 68.9371C148.946 68.2938 147.503 67.3647 146.277 66.221C145.052 65.0774 144.113 63.6479 143.464 62.0756C142.743 60.5031 142.454 58.7877 142.454 57.0009ZM149.162 57.0009C149.162 58.0014 149.379 58.8591 149.739 59.7168C150.101 60.5745 150.605 61.2893 151.254 61.8611C151.904 62.4329 152.625 62.9333 153.491 63.2906C154.356 63.6479 155.221 63.7909 156.16 63.7909C157.097 63.7909 157.963 63.6479 158.829 63.2906C159.693 62.9333 160.415 62.5043 161.065 61.8611C161.713 61.2893 162.218 60.5745 162.579 59.7168C162.939 58.8591 163.155 58.0014 163.155 57.0009C163.155 56.0002 162.939 55.1425 162.579 54.2848C162.218 53.4271 161.713 52.7123 161.065 52.1405C160.415 51.5687 159.693 51.0685 158.829 50.711C157.963 50.3537 157.097 50.2108 156.16 50.2108C155.221 50.2108 154.356 50.3537 153.491 50.711C152.625 51.0685 151.904 51.4973 151.254 52.1405C150.605 52.7123 150.101 53.4985 149.739 54.2848C149.379 55.1425 149.162 56.0002 149.162 57.0009Z" fill="#C5A25D"/>
<path d="M174.769 57.0009C174.769 55.2139 175.129 53.4985 175.778 51.9262C176.428 50.3537 177.365 48.9956 178.591 47.7806C179.817 46.637 181.26 45.7078 182.919 45.0645C184.579 44.4213 186.453 44.064 188.473 44.064C190.492 44.064 192.297 44.4213 193.955 45.0645C195.614 45.7078 197.057 46.637 198.283 47.7806C199.509 48.9242 200.446 50.3537 201.096 51.9262C201.745 53.4985 202.105 55.2139 202.105 57.0009C202.105 58.7877 201.745 60.5031 201.096 62.0756C200.446 63.6479 199.436 65.006 198.283 66.221C197.057 67.3647 195.614 68.2938 193.955 68.9371C192.297 69.5803 190.421 69.9378 188.473 69.9378C186.453 69.9378 184.65 69.5803 182.919 68.9371C181.26 68.2938 179.817 67.3647 178.591 66.221C177.365 65.0774 176.428 63.6479 175.778 62.0756C175.129 60.5031 174.769 58.7877 174.769 57.0009ZM181.477 57.0009C181.477 58.0014 181.693 58.8591 182.054 59.7168C182.414 60.5745 182.92 61.2893 183.569 61.8611C184.217 62.4329 184.939 62.9333 185.805 63.2906C186.67 63.6479 187.535 63.7909 188.473 63.7909C189.411 63.7909 190.277 63.6479 191.142 63.2906C192.008 62.9333 192.728 62.5043 193.378 61.8611C194.027 61.2893 194.533 60.5745 194.893 59.7168C195.253 58.8591 195.47 58.0014 195.47 57.0009C195.47 56.0002 195.253 55.1425 194.893 54.2848C194.533 53.4271 194.027 52.7123 193.378 52.1405C192.728 51.5687 192.008 51.0685 191.142 50.711C190.277 50.3537 189.411 50.2108 188.473 50.2108C187.535 50.2108 186.67 50.3537 185.805 50.711C184.939 51.0685 184.217 51.4973 183.569 52.1405C182.92 52.7123 182.414 53.4985 182.054 54.2848C181.693 55.1425 181.477 56.0002 181.477 57.0009Z" fill="#C5A25D"/>
<path d="M208.165 69.2233V44.7075H214.585V48.0668C214.585 48.0668 220.715 44.7075 225.62 44.7075C229.011 44.7075 232.041 46.6372 232.041 51.0687C232.041 58.8595 232.041 69.2233 232.041 69.2233H226.342C226.342 69.2233 226.342 57.7873 226.342 53.4989C226.342 52.7126 226.342 50.5683 224.033 50.5683C221.148 50.5683 214.656 52.4267 214.656 58.2877C214.656 65.1492 214.656 69.2233 214.656 69.2233H208.165Z" fill="#C5A25D"/>
<path d="M69.1709 85.5911C68.666 85.0907 68.3774 84.4475 68.3774 83.5898V79.2298C68.3774 78.3721 68.666 77.7288 69.1709 77.2285C69.6758 76.7281 70.3249 76.5137 71.1905 76.5137C72.0561 76.5137 72.7053 76.7281 73.2102 77.2285C73.7151 77.7288 74.0036 78.3721 74.0036 79.2298V83.5898C74.0036 84.4475 73.7151 85.0907 73.2102 85.5911C72.7053 86.0913 72.0561 86.3057 71.1905 86.3057C70.397 86.3772 69.6758 86.0913 69.1709 85.5911ZM71.8396 84.4475C71.9839 84.3044 72.0561 84.0186 72.0561 83.7327V79.1583C72.0561 78.8724 71.9839 78.658 71.8396 78.4435C71.6954 78.3006 71.479 78.1576 71.1905 78.1576C70.9021 78.1576 70.7578 78.229 70.5413 78.4435C70.397 78.5865 70.3249 78.8724 70.3249 79.1583V83.7327C70.3249 84.0186 70.397 84.233 70.5413 84.4475C70.6856 84.5903 70.9021 84.7334 71.1905 84.7334C71.479 84.6618 71.6954 84.5903 71.8396 84.4475Z" fill="#C5A25D"/>
<path d="M82.2986 86.0911L81.2166 82.303L81.1444 82.2316H80.6395C80.5674 82.2316 80.5674 82.2316 80.5674 82.303V86.0197C80.5674 86.0911 80.5674 86.0911 80.4952 86.1627C80.4952 86.1627 80.4231 86.2341 80.3511 86.2341H78.7642C78.692 86.2341 78.692 86.2341 78.6199 86.1627C78.6199 86.1627 78.5479 86.0911 78.5479 86.0197V76.7994C78.5479 76.728 78.5477 76.728 78.6199 76.6565C78.6199 76.6565 78.692 76.585 78.7642 76.585H81.5772C82.0821 76.585 82.5149 76.728 82.9478 76.9424C83.3084 77.1568 83.669 77.5142 83.8853 77.943C84.1018 78.3719 84.2461 78.8723 84.2461 79.4441C84.2461 80.0159 84.1739 80.4446 83.9575 80.8736C83.7411 81.3023 83.4527 81.5882 83.0919 81.8027C83.0919 81.8027 83.0919 81.8027 83.0198 81.8027C82.9478 81.8027 83.0198 81.8027 83.0198 81.8741L84.3182 85.8768V85.9482C84.3182 86.0197 84.2461 86.0911 84.1739 86.0911H82.5149C82.4427 86.2341 82.3707 86.1627 82.2986 86.0911ZM80.6395 78.3719V80.7305C80.6395 80.802 80.6395 80.802 80.7117 80.802H81.3609C81.6494 80.802 81.8658 80.6591 82.0821 80.4446C82.2264 80.2302 82.3707 79.9443 82.3707 79.5155C82.3707 79.1582 82.2986 78.8007 82.0821 78.5864C81.9378 78.3719 81.6494 78.2289 81.3609 78.2289L80.6395 78.3719C80.7117 78.3003 80.6395 78.3003 80.6395 78.3719Z" fill="#C5A25D"/>
<path d="M88.8622 86.1627C88.8622 86.1627 88.79 86.0911 88.79 86.0197V76.7994C88.79 76.728 88.79 76.728 88.8622 76.6565C88.8622 76.6565 88.9343 76.585 89.0065 76.585H90.5934C90.6655 76.585 90.6655 76.585 90.7375 76.6565C90.7375 76.6565 90.8098 76.728 90.8098 76.7994V86.0911C90.8098 86.1627 90.8098 86.1627 90.7375 86.2341C90.7375 86.2341 90.6655 86.3056 90.5934 86.3056H89.0065C88.9343 86.2341 88.8622 86.2341 88.8622 86.1627Z" fill="#C5A25D"/>
<path d="M96.2193 85.6623C95.7144 85.162 95.498 84.5902 95.498 83.8039V79.1582C95.498 78.3719 95.7144 77.7285 96.2193 77.2998C96.7242 76.7994 97.3733 76.585 98.239 76.585C99.1045 76.585 99.7537 76.7994 100.259 77.2998C100.763 77.8001 101.052 78.3719 101.052 79.1582V79.6584C101.052 79.73 101.052 79.73 100.98 79.8014C100.98 79.8014 100.908 79.8728 100.836 79.8728H99.2488C99.1766 79.8728 99.1766 79.8728 99.1045 79.8014C99.1045 79.8014 99.0323 79.73 99.0323 79.6584V79.0866C99.0323 78.8007 98.9602 78.5864 98.816 78.4434C98.6717 78.3005 98.4553 78.1575 98.239 78.1575C98.0225 78.1575 97.8062 78.2289 97.6619 78.4434C97.5176 78.5864 97.4455 78.8007 97.4455 79.0866V83.7325C97.4455 84.0184 97.5176 84.2329 97.6619 84.3757C97.8062 84.5188 98.0225 84.6616 98.239 84.6616C98.4553 84.6616 98.6717 84.5902 98.816 84.3757C98.9602 84.2329 99.0323 84.0184 99.0323 83.7325V82.6604C99.0323 82.5889 99.0323 82.5889 98.9602 82.5889H98.3831C98.3111 82.5889 98.3111 82.5889 98.239 82.5175C98.239 82.5175 98.1668 82.4459 98.1668 82.3745V81.1594C98.1668 81.0879 98.1668 81.0879 98.239 81.0164C98.239 81.0164 98.3111 80.945 98.3831 80.945H100.836C100.908 80.945 100.908 80.945 100.98 81.0164C100.98 81.0164 101.052 81.0879 101.052 81.1594V83.6611C101.052 84.4472 100.763 85.0906 100.259 85.5193C99.7537 86.0197 99.1045 86.2341 98.239 86.2341C97.3733 86.377 96.7242 86.0911 96.2193 85.6623Z" fill="#C5A25D"/>
<path d="M105.668 86.1627C105.668 86.1627 105.596 86.0911 105.596 86.0197V76.7994C105.596 76.728 105.596 76.728 105.668 76.6565C105.668 76.6565 105.74 76.585 105.813 76.585H107.399C107.471 76.585 107.471 76.585 107.544 76.6565C107.544 76.6565 107.616 76.728 107.616 76.7994V86.0911C107.616 86.1627 107.616 86.1627 107.544 86.2341C107.544 86.2341 107.471 86.3056 107.399 86.3056H105.813C105.74 86.2341 105.668 86.2341 105.668 86.1627Z" fill="#C5A25D"/>
<path d="M116.416 76.728C116.416 76.728 116.488 76.6565 116.56 76.6565H118.147C118.219 76.6565 118.219 76.6565 118.291 76.728C118.363 76.7994 118.363 76.7994 118.363 76.8709V86.0911C118.363 86.1627 118.363 86.1627 118.291 86.2341C118.291 86.2341 118.219 86.3056 118.147 86.3056H116.344C116.271 86.3056 116.199 86.2341 116.199 86.1627L114.468 80.8735C114.468 80.8735 114.468 80.802 114.396 80.8735C114.396 80.8735 114.396 80.8735 114.396 80.945V86.2341C114.396 86.3056 114.396 86.3056 114.324 86.377C114.324 86.377 114.252 86.4486 114.18 86.4486H112.593C112.521 86.4486 112.521 86.4486 112.449 86.377C112.449 86.377 112.376 86.3056 112.376 86.2341V76.7994C112.376 76.728 112.377 76.728 112.449 76.6565C112.449 76.6565 112.521 76.585 112.593 76.585H114.396C114.468 76.585 114.54 76.6565 114.54 76.728L116.271 82.0171C116.271 82.0171 116.271 82.0886 116.344 82.0171C116.344 82.0171 116.344 82.0171 116.344 81.9456V76.6565C116.344 76.7994 116.344 76.728 116.416 76.728Z" fill="#C5A25D"/>
<path d="M126.947 86.0912L126.73 84.8047C126.73 84.7331 126.73 84.7333 126.658 84.7333H124.927C124.855 84.7333 124.855 84.7331 124.855 84.8047L124.639 86.0912C124.639 86.1627 124.566 86.2342 124.494 86.2342H122.907C122.763 86.2342 122.763 86.1627 122.763 86.0912L124.783 76.871C124.783 76.7995 124.855 76.728 124.927 76.728H126.802C126.875 76.728 126.947 76.7995 126.947 76.871L128.966 86.0912V86.1627C128.966 86.2342 128.894 86.3056 128.822 86.3056H127.163C127.019 86.2342 126.947 86.1627 126.947 86.0912ZM125.144 83.2322H126.37C126.442 83.2322 126.442 83.2322 126.442 83.1608L125.793 79.4441C125.793 79.4441 125.793 79.3725 125.721 79.3725C125.721 79.3725 125.721 79.3725 125.648 79.4441L125.144 83.2322Z" fill="#C5A25D"/>
<path d="M133.366 86.1626C133.366 86.1626 133.294 86.0911 133.294 86.0197V76.7994C133.294 76.728 133.294 76.728 133.366 76.6565C133.366 76.6565 133.438 76.585 133.51 76.585H135.097C135.169 76.585 135.169 76.585 135.241 76.6565C135.241 76.6565 135.314 76.728 135.314 76.7994V84.5188C135.314 84.5902 135.314 84.5902 135.386 84.5902H138.271C138.343 84.5902 138.343 84.5902 138.415 84.6616C138.415 84.6616 138.487 84.7331 138.487 84.8047V86.1626C138.487 86.2341 138.487 86.2341 138.415 86.3056C138.415 86.3056 138.343 86.377 138.271 86.377H133.51C133.438 86.2341 133.438 86.2341 133.366 86.1626Z" fill="#C5A25D"/>
<path d="M150.821 86.091L148.875 76.8707V76.7991C148.875 76.7277 148.946 76.6562 149.018 76.6562H150.821C150.965 76.6562 150.965 76.7277 150.965 76.7991L151.904 82.8031C151.904 82.8031 151.904 82.8745 151.975 82.8745C151.975 82.8745 151.975 82.8745 152.048 82.8031L152.985 76.7991C152.985 76.7277 153.058 76.6562 153.13 76.6562H154.861C155.004 76.6562 155.004 76.7277 155.004 76.7991L152.985 86.091C152.985 86.1624 152.914 86.2338 152.841 86.2338H151.038C150.965 86.2338 150.894 86.1624 150.821 86.091Z" fill="#C5A25D"/>
<path d="M159.549 86.1627C159.549 86.1627 159.477 86.0911 159.477 86.0197V76.7994C159.477 76.728 159.477 76.728 159.549 76.6565C159.549 76.6565 159.622 76.585 159.693 76.585H161.281C161.352 76.585 161.352 76.585 161.425 76.6565C161.425 76.6565 161.496 76.728 161.496 76.7994V86.0911C161.496 86.1627 161.496 86.1627 161.425 86.2341C161.425 86.2341 161.352 86.3056 161.281 86.3056H159.693C159.622 86.2341 159.549 86.2341 159.549 86.1627Z" fill="#C5A25D"/>
<path d="M171.307 78.3005C171.307 78.3005 171.234 78.3719 171.163 78.3719H168.277C168.205 78.3719 168.205 78.3719 168.205 78.4434V80.5877C168.205 80.6591 168.205 80.6591 168.277 80.6591H169.937C170.008 80.6591 170.008 80.6591 170.08 80.7305C170.08 80.7305 170.153 80.802 170.153 80.8735V82.2316C170.153 82.303 170.153 82.303 170.08 82.3745C170.08 82.3745 170.008 82.4459 169.937 82.4459H168.277C168.205 82.4459 168.205 82.4459 168.205 82.5175V84.6616C168.205 84.7331 168.205 84.7331 168.277 84.7331H171.163C171.234 84.7331 171.234 84.7331 171.307 84.8047C171.307 84.8047 171.379 84.8761 171.379 84.9475V86.3056C171.379 86.377 171.379 86.377 171.307 86.4486C171.307 86.4486 171.234 86.52 171.163 86.52H166.402C166.33 86.52 166.33 86.52 166.258 86.4486C166.258 86.4486 166.185 86.377 166.185 86.3056V76.7994C166.185 76.728 166.185 76.728 166.258 76.6565C166.258 76.6565 166.33 76.585 166.402 76.585H171.163C171.234 76.585 171.234 76.585 171.307 76.6565C171.307 76.6565 171.379 76.728 171.379 76.7994V78.1575C171.307 78.2289 171.307 78.2289 171.307 78.3005Z" fill="#C5A25D"/>
<path d="M181.404 76.728C181.404 76.728 181.477 76.7994 181.477 76.8709V78.2289C181.477 78.3005 181.477 78.3003 181.404 78.3719C181.404 78.3719 181.333 78.4434 181.26 78.4434H179.53C179.457 78.4434 179.457 78.4434 179.457 78.5148V86.0911C179.457 86.1627 179.457 86.1627 179.385 86.2341C179.385 86.2341 179.313 86.3056 179.241 86.3056H177.654C177.581 86.3056 177.581 86.3056 177.509 86.2341C177.509 86.2341 177.438 86.1627 177.438 86.0911V78.3719C177.438 78.3003 177.438 78.3005 177.365 78.3005H175.706C175.635 78.3005 175.635 78.3005 175.562 78.2289C175.489 78.1575 175.489 78.1575 175.489 78.086V76.7994C175.489 76.728 175.489 76.728 175.562 76.6565C175.635 76.585 175.635 76.585 175.706 76.585H181.188C181.333 76.6565 181.333 76.6565 181.404 76.728Z" fill="#C5A25D"/>
<path d="M189.988 76.728C189.988 76.728 190.061 76.6565 190.132 76.6565H191.719C191.791 76.6565 191.791 76.6565 191.864 76.728C191.935 76.7994 191.935 76.7994 191.935 76.8709V86.0911C191.935 86.1627 191.935 86.1627 191.864 86.2341C191.864 86.2341 191.791 86.3056 191.719 86.3056H189.916C189.845 86.3056 189.772 86.2341 189.772 86.1627L188.041 80.8735C188.041 80.8735 188.041 80.802 187.969 80.8735C187.969 80.8735 187.969 80.8735 187.969 80.945V86.2341C187.969 86.3056 187.969 86.3056 187.896 86.377C187.896 86.377 187.825 86.4486 187.752 86.4486H186.166C186.093 86.4486 186.093 86.4486 186.02 86.377C186.02 86.377 185.949 86.3056 185.949 86.2341V76.7994C185.949 76.728 185.949 76.728 186.02 76.6565C186.02 76.6565 186.093 76.585 186.166 76.585H187.969C188.041 76.585 188.113 76.6565 188.113 76.728L189.845 82.0171C189.845 82.0171 189.845 82.0886 189.916 82.0171C189.916 82.0171 189.916 82.0171 189.916 81.9456V76.6565C189.916 76.7994 189.916 76.728 189.988 76.728Z" fill="#C5A25D"/>
<path d="M200.519 86.0912L200.302 84.8047C200.302 84.7331 200.302 84.7333 200.23 84.7333H198.499C198.427 84.7333 198.427 84.7331 198.427 84.8047L198.21 86.0912C198.21 86.1627 198.139 86.2342 198.066 86.2342H196.48C196.336 86.2342 196.336 86.1627 196.336 86.0912L198.356 76.871C198.356 76.7995 198.427 76.728 198.499 76.728H200.375C200.446 76.728 200.519 76.7995 200.519 76.871L202.539 86.0912V86.1627C202.539 86.2342 202.466 86.3056 202.395 86.3056H200.735C200.592 86.2342 200.592 86.1627 200.519 86.0912ZM198.716 83.2322H199.942C200.015 83.2322 200.015 83.2322 200.015 83.1608L199.365 79.4441C199.365 79.4441 199.365 79.3725 199.293 79.3725C199.293 79.3725 199.293 79.3725 199.22 79.4441L198.716 83.2322Z" fill="#C5A25D"/>
<path d="M211.556 76.6565H213.142C213.213 76.6565 213.213 76.6565 213.286 76.728C213.286 76.728 213.359 76.7994 213.359 76.8709V86.0911C213.359 86.1627 213.359 86.1627 213.286 86.2341C213.286 86.2341 213.213 86.3056 213.142 86.3056H211.556C211.483 86.3056 211.483 86.3056 211.41 86.2341C211.41 86.2341 211.339 86.1627 211.339 86.0911V79.9443C211.339 79.8728 211.339 79.8728 211.339 79.8728C211.339 79.8728 211.339 79.8728 211.266 79.9443L210.184 81.8027C210.113 81.8741 210.113 81.9457 210.04 81.9457C209.968 81.9457 209.968 81.8741 209.896 81.8027L208.814 79.9443L208.743 79.8728C208.743 79.8728 208.743 79.8728 208.743 79.9443V86.0911C208.743 86.1627 208.743 86.1627 208.67 86.2341C208.67 86.2341 208.597 86.3056 208.526 86.3056H206.938C206.867 86.3056 206.867 86.3056 206.794 86.2341C206.794 86.2341 206.722 86.1627 206.722 86.0911V76.7994C206.722 76.728 206.722 76.728 206.794 76.6565C206.867 76.585 206.867 76.585 206.938 76.585H208.526C208.597 76.585 208.67 76.585 208.743 76.728L209.968 78.8723C209.968 78.9437 210.04 78.9437 210.04 78.8723L211.194 76.728C211.339 76.6565 211.41 76.6565 211.556 76.6565Z" fill="#C5A25D"/>
<path d="M128.029 28.5541V25.7666H130.77V28.5541H133.222V30.6984H130.77V34.4151C130.77 34.9154 130.914 35.2728 131.13 35.4158C131.347 35.6301 131.635 35.7017 131.996 35.7017C132.284 35.7017 132.573 35.6301 132.861 35.5587C133.15 35.4872 133.366 35.4158 133.583 35.2728V37.5599C133.366 37.6314 133.078 37.7744 132.645 37.8458C132.212 37.9173 131.78 37.9888 131.202 37.9888C130.842 37.9888 130.481 37.9173 130.121 37.8458C129.76 37.7744 129.471 37.6314 129.183 37.417C128.894 37.2026 128.678 36.9167 128.461 36.6308C128.245 36.2735 128.173 35.8445 128.101 35.4158C128.101 35.2728 128.101 35.1297 128.029 34.9869C128.029 34.8438 128.029 34.701 128.029 34.4865V30.6984H126.73V28.5541H128.029Z" fill="#C5A25D"/>
<path d="M137.91 24.48V29.0543C137.91 29.2688 137.91 29.4832 137.91 29.6261C137.91 29.8406 137.91 29.9836 137.91 30.055C138.055 29.8406 138.199 29.6977 138.415 29.4832C138.632 29.2688 138.848 29.0543 139.064 28.9114C139.353 28.7684 139.641 28.6255 139.93 28.4825C140.219 28.3396 140.579 28.3396 141.012 28.3396C142.094 28.3396 142.887 28.6255 143.464 29.2688C144.042 29.912 144.33 30.8413 144.33 32.0563V37.8458H141.445V32.4851C141.445 32.0563 141.373 31.6274 141.156 31.3415C141.012 30.9842 140.651 30.8413 140.146 30.8413C139.497 30.8413 138.92 31.0556 138.559 31.4845C138.127 31.9133 137.982 32.4851 137.982 33.1999V37.8458H135.169V24.48H137.91Z" fill="#C5A25D"/>
<path d="M150.678 28.3394C151.398 28.3394 152.048 28.4824 152.553 28.6968C153.13 28.9111 153.563 29.2686 153.924 29.626C154.284 30.0549 154.573 30.4836 154.717 30.984C154.933 31.4844 155.005 32.0561 155.005 32.6279C155.005 32.8423 155.005 33.1283 155.005 33.2712C155.005 33.4856 155.005 33.6285 154.933 33.7001H148.802C148.875 34.3433 149.091 34.8437 149.595 35.1296C150.028 35.4869 150.678 35.6298 151.398 35.6298C151.759 35.6298 152.048 35.6298 152.408 35.5583C152.697 35.4869 153.058 35.4869 153.347 35.4155C153.634 35.3439 153.924 35.2724 154.14 35.201C154.357 35.1296 154.573 35.058 154.717 34.9865V37.3453C154.428 37.4882 153.995 37.6312 153.347 37.7741C152.769 37.9171 152.048 37.9885 151.182 37.9885C150.389 37.9885 149.668 37.8455 149.018 37.6312C148.369 37.4167 147.792 37.0594 147.359 36.6305C146.926 36.2016 146.566 35.7014 146.277 35.058C146.062 34.4862 145.917 33.843 145.917 33.1283C145.917 32.4135 146.062 31.7703 146.277 31.1985C146.493 30.6267 146.855 30.0549 147.288 29.626C147.72 29.1972 148.225 28.8397 148.802 28.6253C149.379 28.4109 150.028 28.3394 150.678 28.3394ZM152.337 32.342C152.337 31.8417 152.192 31.4128 151.904 31.0554C151.615 30.6981 151.182 30.4836 150.605 30.4836C150.028 30.4836 149.595 30.6981 149.308 31.0554C149.018 31.4128 148.802 31.8417 148.802 32.342H152.337Z" fill="#C5A25D"/>
</svg>
