<svg width="250" height="157" viewBox="0 0 250 157" fill="none" xmlns="http://www.w3.org/2000/svg">
<g clip-path="url(#clip0_64_35)">
<path d="M81.4073 0.000244141C7.73665 22.4863 52.3055 76.3548 52.3055 76.3548C8.22168 92.8826 -20.1256 120.184 -20.2873 151.689C-20.2873 158.259 -7.13759 158.463 -7.13759 151.689C-6.97591 125.408 15.8744 102.514 52.1977 87.5366C43.6289 104.309 37.1618 135.937 96.4971 153.485C120.695 109.002 90.4612 88.5568 71.9762 80.7214C85.1259 76.6812 99.4073 73.7838 114.928 71.9065C114.928 71.9065 103.126 128.917 167.797 132.917C193.611 84.3126 126.461 70.6414 126.461 70.6414C135.461 69.9885 154.808 69.2947 155.24 69.2947C155.24 69.2947 194.958 112.675 244.27 84.8431C221.096 33.9945 156.749 59.7861 156.749 59.7861C155.886 59.5821 143.922 59.5821 138.749 59.7861C138.749 59.7861 186.713 41.3402 169.737 4.12201C97.5211 5.836 112.395 62.0306 112.395 62.0306C97.6289 63.8263 83.6169 66.6013 70.6288 70.1925C70.6288 70.1925 120.102 36.3207 81.4073 0.000244141Z" fill="#FFB6C1"/>
</g>
<defs>
<clipPath id="clip0_64_35">
<rect width="156.708" height="275.928" fill="white" transform="matrix(0 -1 -1 0 249.928 156.708)"/>
</clipPath>
</defs>
</svg>
