<svg width="251" height="157" viewBox="0 0 251 157" fill="none" xmlns="http://www.w3.org/2000/svg">
<g clip-path="url(#clip0_64_33)">
<path d="M169.416 0.154541C243.087 22.6406 198.518 76.5091 198.518 76.5091C242.602 93.0369 270.949 120.338 271.111 151.843C271.111 158.414 257.961 158.618 257.961 151.843C257.8 125.562 234.949 102.668 198.626 87.6909C207.195 104.464 213.662 136.091 154.327 153.639C130.129 109.157 160.363 88.7111 178.848 80.8757C165.698 76.8355 151.416 73.9381 135.895 72.0608C135.895 72.0608 147.698 129.072 83.0272 133.071C57.2129 84.4669 124.363 70.7957 124.363 70.7957C115.363 70.1428 96.0153 69.449 95.5841 69.449C95.5841 69.449 55.8656 112.829 6.5542 84.9974C29.7278 34.1488 94.0751 59.9404 94.0751 59.9404C94.9374 59.7364 106.901 59.7364 112.075 59.9404C112.075 59.9404 64.1111 41.4945 81.0871 4.27631C153.303 5.9903 138.428 62.1849 138.428 62.1849C153.195 63.9806 167.207 66.7556 180.195 70.3468C180.195 70.3468 130.722 36.475 169.416 0.154541Z" fill="#FFB6C1"/>
</g>
<defs>
<clipPath id="clip0_64_33">
<rect width="156.708" height="275.928" fill="white" transform="matrix(0 -1 1 0 0.895508 156.863)"/>
</clipPath>
</defs>
</svg>
