<svg width="64" height="64" viewBox="0 0 64 64" fill="none" xmlns="http://www.w3.org/2000/svg">
<path d="M22.625 2C22.625 17.834 14.068 32 2 32C14.068 32 22.625 46.167 22.625 62C22.625 46.167 31.182 32 43.25 32C31.182 32 22.625 17.834 22.625 2Z" fill="#FB8C9D"/>
<path d="M47 32C47 39.918 42.723 47 36.687 47C42.723 47 47 54.084 47 62C47 54.084 51.277 47 57.313 47C51.277 47 47 39.918 47 32Z" fill="#FB8C9D"/>
<path d="M51.688 2C51.688 9.917 47.411 17 41.375 17C47.41 17 51.688 24.084 51.688 32C51.688 24.084 55.965 17 62.001 17C55.965 17 51.688 9.917 51.688 2Z" fill="#FB8C9D"/>
</svg>
